<svg xmlns="http://www.w3.org/2000/svg" height="20" viewBox="0 96 960 960" width="20">
    <path fill="#9c1717"
        d="m349 776 131-131 131 131 69-69-131-131 131-131-69-69-131 131-131-131-69 69 131 131-131 131 69 69Zm131 230q-88.64 0-167.467-33.104-78.828-33.103-137.577-91.852-58.749-58.749-91.852-137.577Q50 664.64 50 576q0-89.896 33.162-167.949 33.163-78.053 92.013-136.968 58.85-58.916 137.576-91.999Q391.476 146 480 146q89.886 0 167.931 33.084 78.044 33.083 136.973 92.012 58.929 58.929 92.012 137Q910 486.167 910 576.083q0 88.917-33.084 167.404-33.083 78.488-91.999 137.338-58.915 58.85-136.968 92.012Q569.896 1006 480 1006Z" />
</svg>